<svg xmlns="http://www.w3.org/2000/svg" viewBox="0 0 64 64">
  <style>
    .bg  { fill: #ffffff; }
    .ico { stroke: oklch(45% 0.24 277.023); }
    @media (prefers-color-scheme: dark) {
      .bg  { fill: #111111; }
      .ico { stroke: oklch(65% 0.22 277.023); }
    }
  </style>

  <rect class="bg" width="64" height="64" rx="14"/>

  <g transform="translate(32 36) scale(1.9) translate(-32 -32)">
    <!-- Left brace -->
    <path class="ico" d="M24 18c-4 0-4 4-4 6v2c0 2-2 4-4 4 2 0 4 2 4 4v2c0 2 0 6 4 6"
      stroke-width="3.5" fill="none" stroke-linecap="round"/>
    <!-- Right brace -->
    <path class="ico" d="M40 18c4 0 4 4 4 6v2c0 2 2 4 4 4-2 0-4 2-4 4v2c0 2 0 6-4 6"
      stroke-width="3.5" fill="none" stroke-linecap="round"/>
    <!-- Conversion arrows -->
    <g transform="rotate(-18 32 30)">
      <path class="ico" d="M26 30h12" stroke-width="3.5" stroke-linecap="round"/>
      <path class="ico" d="M32 24l6 6-6 6" stroke-width="3.5" fill="none"/>
      <path class="ico" d="M32 40l-6-6 6-6" stroke-width="3.5" fill="none"/>
    </g>
  </g>
</svg>